#!OML:ASF X:\für Bonn\!DataBase\2005_08_12_Daniel\c3d\Daniel.ASF
:FULLY-SPECIFIED
:DEGREES
313
root 12.8827 16.8133 -0.166958 -744.16 -72.0759 734.763
lowerback 15.4853 -5.33254 -8.46944
upperback 5.12137 -8.72181 -3.897
thorax -2.5195 -4.46278 2.06959
lowerneck 6.65941 4.12736 4.4549
upperneck 2.31262 5.72314 -0.391825
head -0.246918 2.86056 -0.97272
rclavicle 1.2921e-014 2.3059e-014
rhumerus -39.7351 4.14066 -96.0816
rradius 58.1058
rwrist -6.12109
rhand -23.2766 15.7791
rfingers 7.12502
rthumb 3.17594 -14.177
lclavicle 1.2921e-014 2.3059e-014
lhumerus -42.3186 9.76703 75.5351
lradius 112.63
lwrist 195.332
lhand -10.6467 16.1934
lfingers 7.12502
lthumb 15.3608 45.6028
rfemur -25.7468 0.309993 4.99194
rtibia 42.5777
rfoot -23.887 -11.809
rtoes -7.73497
lfemur 1.82011 -9.02543 -26.7947
ltibia 42.7121
lfoot -32.0272 -12.9596
ltoes -9.0642
314
root 12.988 16.8204 -0.157142 -743.922 -72.3621 734.483
lowerback 15.5598 -5.30692 -8.51667
upperback 5.14173 -8.70586 -3.92525
thorax -2.5364 -4.4557 2.07044
lowerneck 6.76198 4.11649 4.46015
upperneck 2.2191 5.71496 -0.370523
head -0.293665 2.85478 -0.971473
rclavicle -1.48691e-013 6.36111e-015
rhumerus -39.5938 4.57205 -96.1853
rradius 58.2319
rwrist -6.1992
rhand -23.3439 15.8228
rfingers 7.12502
rthumb 3.111 -14.1343
lclavicle -1.48691e-013 6.36111e-015
lhumerus -42.3072 9.74872 75.0527
lradius 111.453
lwrist 195.281
lhand -10.8772 15.7151
lfingers 7.12502
lthumb 15.1388 45.1414
rfemur -25.7492 -1.47196 5.63529
rtibia 43.5261
rfoot -23.0668 -10.1764
rtoes -7.79899
lfemur 1.28718 -8.81225 -26.6468
ltibia 43.0672
lfoot -31.8382 -13.0196
ltoes -8.97833
315
root 13.0922 16.8263 -0.148307 -743.77 -72.6183 734.308
lowerback 15.6102 -5.28583 -8.61711
upperback 5.15296 -8.70141 -3.95152
thorax -2.54071 -4.45473 2.10076
lowerneck 6.86927 4.10958 4.46432
upperneck 2.13228 5.71211 -0.377687
head -0.338309 2.85205 -0.979059
rclavicle -3.84648e-014 -1.19271e-014
rhumerus -39.4637 5.04557 -96.2735
rradius 58.3986
rwrist -6.27627
rhand -23.3777 15.8148
rfingers 7.12502
rthumb 3.07839 -14.1427
lclavicle -3.84648e-014 -1.19271e-014
lhumerus -42.3136 9.77352 74.5959
lradius 110.226
lwrist 195.119
lhand -11.1566 15.2233
lfingers 7.12502
lthumb 14.8696 44.6697
rfemur -25.7482 -3.07431 6.19692
rtibia 44.5184
rfoot -22.3329 -8.61712
rtoes -8.0599
lfemur 0.738441 -8.60981 -26.529
ltibia 43.4126
lfoot -31.5904 -13.1408
ltoes -8.74912
316
root 13.1943 16.8305 -0.140072 -743.726 -72.8661 734.26
lowerback 15.6222 -5.25801 -8.73269
upperback 5.15739 -8.68777 -3.99945
thorax -2.53383 -4.44956 2.11144
lowerneck 6.98427 4.10574 4.43585
upperneck 2.0383 5.71146 -0.337432
head -0.388612 2.84948 -0.966817
rclavicle -2.3556e-014 2.8625e-014
rhumerus -39.3222 5.48497 -96.3611
rradius 58.5618
rwrist -6.33363
rhand -23.4053 15.7928
rfingers 7.12502
rthumb 3.05173 -14.1652
lclavicle -2.3556e-014 2.8625e-014
lhumerus -42.3764 9.7631 74.1384
lradius 108.988
lwrist 194.916
lhand -11.4373 14.645
lfingers 7.12502
lthumb 14.5992 44.1112
rfemur -25.7411 -4.54873 6.68225
rtibia 45.5467
rfoot -21.7011 -6.9778
rtoes -8.4818
lfemur 0.191815 -8.41286 -26.4495
ltibia 43.7558
lfoot -31.331 -13.2591
ltoes -8.50815
317
root 13.2956 16.834 -0.132849 -743.676 -73.1075 734.201
lowerback 15.6373 -5.22597 -8.8512
upperback 5.16264 -8.66837 -4.03181
thorax -2.52526 -4.44166 2.13915
lowerneck 7.07376 4.10169 4.384
upperneck 1.95243 5.70783 -0.317861
head -0.432348 2.84586 -0.956226
rclavicle -2.75317e-014 -2.54444e-014
rhumerus -39.1758 5.92585 -96.4269
rradius 58.7475
rwrist -6.38594
rhand -23.4406 15.7738
rfingers 7.12502
rthumb 3.01761 -14.1846
lclavicle -2.75317e-014 -2.54444e-014
lhumerus -42.4195 9.78089 73.7328
lradius 107.685
lwrist 194.641
lhand -11.7358 14.0734
lfingers 7.12502
lthumb 14.3116 43.5602
rfemur -25.6934 -5.86018 7.14195
rtibia 46.5897
rfoot -21.1862 -5.34334
rtoes -9.19632
lfemur -0.356496 -8.21586 -26.3581
ltibia 44.1018
lfoot -31.0714 -13.4131
ltoes -8.22381
318
root 13.3953 16.8356 -0.126158 -743.649 -73.3451 734.19
lowerback 15.6169 -5.2026 -8.97474
upperback 5.15482 -8.65769 -4.07012
thorax -2.51114 -4.43772 2.16143
lowerneck 7.18829 4.1034 4.33066
upperneck 1.84567 5.71318 -0.318584
head -0.486149 2.84674 -0.953057
rclavicle -8.39865e-014 -3.02153e-014
rhumerus -39.0236 6.36102 -96.4978
rradius 58.9044
rwrist -6.40134
rhand -23.4796 15.8014
rfingers 7.12502
rthumb 2.9799 -14.1575
lclavicle -8.39865e-014 -3.02153e-014
lhumerus -42.4717 9.81976 73.3255
lradius 106.3
lwrist 194.27
lhand -12.0172 13.6205
lfingers 7.12502
lthumb 14.0404 43.1263
rfemur -25.627 -7.06587 7.56513
rtibia 47.6491
rfoot -20.7649 -3.70954
rtoes -9.89362
lfemur -0.923463 -8.00547 -26.2737
ltibia 44.4534
lfoot -30.862 -13.5513
ltoes -8.05246
319
root 13.4946 16.8364 -0.119767 -743.638 -73.5633 734.205
lowerback 15.5865 -5.18302 -9.09306
upperback 5.13923 -8.65015 -4.10809
thorax -2.50043 -4.43476 2.18116
lowerneck 7.30869 4.11476 4.22901
upperneck 1.73266 5.72805 -0.274542
head -0.545209 2.85143 -0.928419
rclavicle -6.38099e-014 -3.97569e-014
rhumerus -38.8901 6.80394 -96.5582
rradius 59.0862
rwrist -6.41693
rhand -23.5248 15.8223
rfingers 7.12502
rthumb 2.9363 -14.1373
lclavicle -6.38099e-014 -3.97569e-014
lhumerus -42.5049 9.86909 72.9284
lradius 104.847
lwrist 193.89
lhand -12.315 13.2015
lfingers 7.12502
lthumb 13.7535 42.7269
rfemur -25.5115 -8.12263 7.94136
rtibia 48.7056
rfoot -20.4266 -2.13415
rtoes -10.1031
lfemur -1.50587 -7.80025 -26.1986
ltibia 44.8119
lfoot -30.6952 -13.7013
ltoes -7.97152
320
root 13.5924 16.8364 -0.114522 -743.621 -73.7931 734.235
lowerback 15.5125 -5.15883 -9.21464
upperback 5.12622 -8.63086 -4.13975
thorax -2.46331 -4.42732 2.20215
lowerneck 7.41663 4.11766 4.14042
upperneck 1.61427 5.73214 -0.267209
head -0.602947 2.85149 -0.916999
rclavicle 6.38099e-014 5.08889e-014
rhumerus -38.7278 7.22878 -96.6067
rradius 59.2586
rwrist -6.42869
rhand -23.5318 15.8886
rfingers 7.12502
rthumb 2.92948 -14.071
lclavicle 6.38099e-014 5.08889e-014
lhumerus -42.5456 9.9437 72.5329
lradius 103.379
lwrist 193.499
lhand -12.6727 12.8849
lfingers 7.12502
lthumb 13.4087 42.4334
rfemur -25.377 -9.11035 8.30413
rtibia 49.7619
rfoot -20.1334 -0.64148
rtoes -9.71879
lfemur -2.10486 -7.56629 -26.1202
ltibia 45.1702
lfoot -30.6107 -13.8027
ltoes -8.06797
321
root 13.6893 16.8351 -0.109375 -743.659 -74.0083 734.311
lowerback 15.4628 -5.13582 -9.33112
upperback 5.10792 -8.61614 -4.1789
thorax -2.44639 -4.42099 2.21664
lowerneck 7.48494 4.1302 4.02912
upperneck 1.51612 5.7453 -0.238955
head -0.648687 2.85609 -0.893962
rclavicle 7.71285e-014 -2.22639e-014
rhumerus -38.5762 7.65087 -96.6605
rradius 59.4453
rwrist -6.4286
rhand -23.5535 15.906
rfingers 7.12502
rthumb 2.90861 -14.0539
lclavicle 7.71285e-014 -2.22639e-014
lhumerus -42.5833 10.0298 72.1457
lradius 101.878
lwrist 193.08
lhand -13 12.6177
lfingers 7.12502
lthumb 13.0932 42.1867
rfemur -25.1805 -9.99555 8.62393
rtibia 50.8011
rfoot -19.8921 0.703962
rtoes -9.19949
lfemur -2.68604 -7.3212 -26.0593
ltibia 45.5238
lfoot -30.5669 -13.8803
ltoes -8.21574
322
root 13.7843 16.8335 -0.104163 -743.724 -74.2226 734.428
lowerback 15.386 -5.11084 -9.44189
upperback 5.08193 -8.59496 -4.22198
thorax -2.42532 -4.41126 2.22065
lowerneck 7.52782 4.14056 3.90942
upperneck 1.44914 5.7531 -0.194087
head -0.681179 2.85812 -0.862913
rclavicle -1.35174e-014 -2.38542e-014
rhumerus -38.4243 8.01887 -96.6995
rradius 59.6207
rwrist -6.40908
rhand -23.5416 15.9903
rfingers 7.12502
rthumb 2.92005 -13.9695
lclavicle -1.35174e-014 -2.38542e-014
lhumerus -42.6791 10.1105 71.7419
lradius 100.429
lwrist 192.694
lhand -13.3627 12.405
lfingers 7.12502
lthumb 12.7435 41.9962
rfemur -24.9599 -10.8404 8.92555
rtibia 51.8255
rfoot -19.739 1.86258
rtoes -8.95892
lfemur -3.25858 -7.09468 -26.0248
ltibia 45.86
lfoot -30.5521 -13.9113
ltoes -8.53335
323
root 13.8784 16.833 -0.0990196 -743.769 -74.4233 734.541
lowerback 15.2967 -5.09406 -9.54301
upperback 5.05422 -8.58092 -4.2603
thorax -2.39941 -4.40508 2.22413
lowerneck 7.5344 4.15599 3.77508
upperneck 1.38524 5.76522 -0.165657
head -0.706475 2.86287 -0.833575
rclavicle 5.79457e-014 3.33958e-014
rhumerus -38.2696 8.39072 -96.7403
rradius 59.8019
rwrist -6.37127
rhand -23.5105 16.0237
rfingers 7.12502
rthumb 2.95009 -13.9357
lclavicle 5.79457e-014 3.33958e-014
lhumerus -42.7995 10.2014 71.342
lradius 98.9902
lwrist 192.365
lhand -13.699 12.2567
lfingers 7.12502
lthumb 12.4193 41.8677
rfemur -24.7015 -11.6159 9.2118
rtibia 52.8226
rfoot -19.6594 2.8031
rtoes -8.8167
lfemur -3.83863 -6.87805 -25.9862
ltibia 46.1728
lfoot -30.5241 -13.9528
ltoes -8.75752
324
root 13.9703 16.8313 -0.0940178 -743.881 -74.6306 734.713
lowerback 15.2135 -5.06035 -9.6424
upperback 5.01514 -8.5459 -4.30048
thorax -2.39161 -4.3872 2.22364
lowerneck 7.55822 4.15899 3.65218
upperneck 1.31694 5.76229 -0.139574
head -0.736068 2.8601 -0.807145
rclavicle 3.05134e-014 -5.08889e-014
rhumerus -38.1323 8.71516 -96.7616
rradius 60.0141
rwrist -6.33703
rhand -23.4731 16.0134
rfingers 7.12502
rthumb 2.98623 -13.9455
lclavicle 3.05134e-014 -5.08889e-014
lhumerus -42.9784 10.2734 70.9502
lradius 97.5994
lwrist 192.099
lhand -14.0843 12.0656
lfingers 7.12502
lthumb 12.0479 41.6988
rfemur -24.391 -12.3334 9.45961
rtibia 53.7952
rfoot -19.6686 3.51746
rtoes -8.84844
lfemur -4.37538 -6.67045 -25.9775
ltibia 46.4559
lfoot -30.5235 -13.9112
ltoes -9.06608
325
root 14.061 16.8307 -0.0881549 -743.981 -74.826 734.886
lowerback 15.0947 -5.03407 -9.71589
upperback 4.98653 -8.51153 -4.3448
thorax -2.35804 -4.37119 2.20049
lowerneck 7.51692 4.16443 3.52671
upperneck 1.28259 5.7596 -0.120582
head -0.743823 2.85824 -0.779935
rclavicle 5.06901e-015 3.18055e-014
rhumerus -37.9721 9.01735 -96.7864
rradius 60.2135
rwrist -6.27474
rhand -23.4422 16.0172
rfingers 7.12502
rthumb 3.01609 -13.9412
lclavicle 5.06901e-015 3.18055e-014
lhumerus -43.1914 10.3479 70.5655
lradius 96.304
lwrist 191.864
lhand -14.4239 11.8106
lfingers 7.12502
lthumb 11.7203 41.4627
rfemur -24.0542 -12.9768 9.67706
rtibia 54.7347
rfoot -19.7536 3.94728
rtoes -9.04099
lfemur -4.90351 -6.49558 -25.9831
ltibia 46.7094
lfoot -30.5474 -13.8644
ltoes -9.40907
326
root 14.1502 16.8305 -0.0827766 -744.113 -75.0137 735.094
lowerback 14.9753 -5.00581 -9.78674
upperback 4.95654 -8.47431 -4.39367
thorax -2.32698 -4.3536 2.17103
lowerneck 7.44828 4.16968 3.3934
upperneck 1.25599 5.7554 -0.0776519
head -0.745387 2.85543 -0.743077
rclavicle -5.40694e-014 -1.59028e-014
rhumerus -37.7878 9.30711 -96.8173
rradius 60.4071
rwrist -6.21195
rhand -23.3618 16.0289
rfingers 7.12502
rthumb 3.0937 -13.9284
lclavicle -5.40694e-014 -1.59028e-014
lhumerus -43.4358 10.3708 70.1747
lradius 95.0804
lwrist 191.685
lhand -14.6756 11.6223
lfingers 7.12502
lthumb 11.4776 41.2881
rfemur -23.6737 -13.5623 9.85849
rtibia 55.6406
rfoot -19.8823 4.18825
rtoes -9.27599
lfemur -5.42069 -6.33378 -26
ltibia 46.9402
lfoot -30.5578 -13.8017
ltoes -9.73385
